<svg width="966" height="945" viewBox="0 0 966 945" fill="none" xmlns="http://www.w3.org/2000/svg">
<path opacity="0.0991676" d="M468.755 937.353L19.744 671.729C5.44895 663.683 -6.80395 650.501 7.12455 641.852L457.733 381.89C464.487 377.696 474.751 374.944 481.636 378.954L952.901 652.781C967.197 661.089 969.762 684.231 955.52 692.618L527.925 936.933C509.663 947.537 487.165 947.697 468.755 937.353Z" fill="#6862E6"/>
<path opacity="0.0991676" d="M468.755 561.353L19.744 295.729C5.44895 287.683 -6.80395 274.501 7.12455 265.852L457.733 5.88968C464.487 1.69632 474.751 -1.05557 481.636 2.95433L952.901 276.781C967.197 285.089 969.762 308.231 955.52 316.618L527.925 560.933C509.663 571.537 487.165 571.697 468.755 561.353Z" stroke="#1E1F36"/>
<path opacity="0.0991676" d="M468.755 636.353L19.744 370.729C5.44895 362.683 -6.80395 349.501 7.12455 340.852L457.733 80.8897C464.487 76.6963 474.751 73.9444 481.636 77.9543L952.901 351.781C967.197 360.089 969.762 383.231 955.52 391.618L527.925 635.933C509.663 646.537 487.165 646.697 468.755 636.353Z" stroke="#1E1F36"/>
<g clip-path="url(#clip0_4_124)">
<path d="M698.046 569.835C648.31 558.024 617.46 507.972 629.276 458.259C641.092 408.545 691.168 377.71 740.904 389.52C755.351 392.967 768.762 399.825 780.011 409.521C791.26 419.216 800.019 431.466 805.555 445.244L804.558 445.644C799.087 432.026 790.429 419.917 779.31 410.334C768.191 400.75 754.936 393.971 740.655 390.564C691.496 378.891 642 409.37 630.321 458.507C618.642 507.644 649.135 557.117 698.294 568.791C711.978 572.087 726.24 572.168 739.96 569.026C753.68 565.884 766.484 559.606 777.367 550.684L778.045 551.516C767.034 560.542 754.08 566.895 740.199 570.073C726.319 573.252 711.89 573.17 698.046 569.835V569.835Z" fill="#E6E6E6"/>
<path d="M865.499 517.264H791.19C787.161 517.264 783.884 512.713 783.884 507.118V430.808C783.884 425.214 787.161 420.662 791.19 420.662H881.694C885.722 420.662 889 425.214 889 430.808V484.629C889 502.625 878.457 517.264 865.499 517.264Z" fill="#F2F2F2"/>
<path d="M730.905 683.127H736.831L742.59 638.576H729.168L730.905 683.127Z" fill="#A0616A"/>
<path d="M728.971 679.07L738.438 678.505V682.56L747.439 688.773C747.884 689.08 748.219 689.521 748.395 690.031C748.571 690.542 748.579 691.095 748.418 691.611C748.258 692.126 747.936 692.577 747.501 692.897C747.066 693.217 746.54 693.39 745.999 693.39H734.728L732.786 689.379L732.027 693.39H727.777L728.971 679.07Z" fill="#2F2E41"/>
<path d="M642.913 668.998L648.319 671.423L671.822 633.134L659.577 627.641L642.913 668.998Z" fill="#A0616A"/>
<path d="M642.81 664.505L651.679 667.864L650.018 671.563L655.685 680.915C655.965 681.377 656.09 681.917 656.041 682.454C655.993 682.992 655.774 683.501 655.416 683.905C655.058 684.31 654.58 684.589 654.052 684.703C653.524 684.817 652.973 684.759 652.48 684.538L642.197 679.925L642.068 675.472L639.733 678.82L635.856 677.081L642.81 664.505Z" fill="#2F2E41"/>
<path d="M685.549 541.371L712.96 537.656C712.96 537.656 748.199 619.116 746.724 660.773L724.362 663.53C724.362 663.53 724.532 646.449 725.772 645.142C727.013 643.835 728.543 645.497 727.013 641.76C725.483 638.022 724.255 637.078 726.093 635.256C727.931 633.434 706.184 601.562 706.184 601.562C706.184 601.562 671.966 644.582 670.129 645.806C668.293 647.029 666.206 647.299 667.403 650.377C668.599 653.454 666.456 659.35 666.456 659.35C666.456 659.35 652.97 657.306 647.461 643.845C647.461 643.845 669.738 603.28 671.76 602.607C673.783 601.934 674.701 605.299 673.783 601.934C672.864 598.569 671.028 599.792 672.864 598.569C674.101 597.779 675.44 597.162 676.843 596.733L683.969 577.904C678.475 565.309 678.827 553.12 685.549 541.371Z" fill="#2F2E41"/>
<path d="M685.286 519.816L686.292 529.143L685.7 541.374L712.805 538.156L715.351 519.816L712.107 519.847L685.286 519.816Z" fill="#FFB6B6"/>
<path d="M708.341 489.688L698.141 481.638L692.786 481.327L684.841 486.415L682.895 496.336L678.294 507.507L685.043 537.656C685.043 537.656 685.676 539.82 684.017 540.08C682.358 540.339 682.557 543.528 682.557 543.528C682.557 543.528 682.895 546.292 681.284 546.536C679.674 546.779 675.379 546.779 679.137 551.609C682.895 556.438 713.333 538.134 713.333 538.134L716.937 515.529C716.937 515.529 725.31 504.289 716.293 497.851L708.341 489.688Z" fill="#FFB5A9"/>
<path d="M663.811 558.14C663.361 557.579 663.04 556.927 662.87 556.229C662.7 555.531 662.685 554.804 662.827 554.1C662.968 553.395 663.263 552.73 663.689 552.152C664.115 551.574 664.663 551.096 665.294 550.752L678.125 507.711L686.148 511.749L672.175 553.003C672.683 554.101 672.77 555.346 672.42 556.504C672.07 557.662 671.307 558.651 670.276 559.285C669.245 559.918 668.017 560.151 666.826 559.94C665.634 559.729 664.561 559.088 663.811 558.14H663.811Z" fill="#A0616A"/>
<path d="M686.683 486.017C686.683 486.017 684.39 484.798 682.821 490.07C681.565 494.291 671.374 519.431 671.244 525.543C670.406 525.721 669.65 526.172 669.096 526.827C668.543 527.481 668.223 528.301 668.186 529.157L680.786 530.844C682.988 528.988 683.565 526.481 682.714 525.737L685.449 518.269L696.862 494.507L688.357 486.868L686.683 486.017Z" fill="#FFB5A9"/>
<path d="M754.008 543.992C754.171 543.293 754.178 542.566 754.029 541.863C753.881 541.16 753.58 540.498 753.147 539.924C752.715 539.35 752.162 538.878 751.528 538.541C750.893 538.204 750.192 538.01 749.474 537.972L720.041 504.372L713.797 511.819L744.244 542.976C744.261 544.185 744.722 545.346 745.538 546.239C746.355 547.132 747.471 547.694 748.674 547.819C749.878 547.945 751.086 547.624 752.069 546.919C753.052 546.214 753.742 545.172 754.008 543.992V543.992Z" fill="#A0616A"/>
<path d="M702.182 488.848C702.182 488.848 703.722 486.758 707.418 490.834C710.376 494.097 730.441 512.36 733.203 517.815C734.036 517.612 734.913 517.693 735.695 518.043C736.477 518.394 737.12 518.994 737.524 519.751L726.893 526.719C724.105 525.997 722.499 523.986 722.945 522.947L717.248 517.395L696.677 500.904L701.041 490.339L702.182 488.848Z" fill="#FFB5A9"/>
<path d="M707.404 482.04C708.585 480.344 698.379 476.336 696.403 477.098C692.35 478.67 687.561 482.029 683.835 482.507C683.906 481.029 683.774 479.548 683.443 478.106C683.04 479.572 682.643 481.042 682.24 482.512C678.724 482.013 672.866 476.121 674.305 462.528C674.901 456.931 679.008 450.98 692.43 448.774C704.821 446.746 707.844 455.938 709.003 461.943C711.645 475.579 710.34 481.831 707.404 482.04Z" fill="#2F2E41"/>
<path d="M695.868 477.117C702.001 477.117 706.972 472.149 706.972 466.019C706.972 459.89 702.001 454.921 695.868 454.921C689.736 454.921 684.765 459.89 684.765 466.019C684.765 472.149 689.736 477.117 695.868 477.117Z" fill="#A0616A"/>
<path d="M710.813 462.059L705.494 462.872C703.149 461.403 702.255 459.225 702.144 456.663L702.679 463.302L700.137 463.69C698.477 462.584 697.736 461.386 698.182 460.069L698.494 463.941C691.718 466.381 685.15 468.181 679.605 466.826C679.32 464.958 679.405 463.052 679.857 461.216C680.308 459.38 681.117 457.652 682.237 456.129C683.356 454.605 684.765 453.318 686.383 452.339C688.001 451.36 689.796 450.709 691.665 450.424L694.402 450.006C696.272 449.72 698.179 449.805 700.016 450.256C701.852 450.708 703.581 451.516 705.105 452.635C706.629 453.755 707.917 455.163 708.897 456.78C709.876 458.397 710.527 460.191 710.813 462.059V462.059Z" fill="#2F2E41"/>
<path d="M577.639 694.835L887.283 695C887.452 695 887.615 694.933 887.735 694.813C887.855 694.693 887.922 694.53 887.922 694.361C887.922 694.192 887.855 694.029 887.735 693.909C887.615 693.789 887.452 693.722 887.283 693.722L577.639 693.557C577.47 693.558 577.308 693.625 577.189 693.745C577.069 693.865 577.002 694.027 577.002 694.196C577.002 694.365 577.069 694.527 577.189 694.647C577.308 694.767 577.47 694.835 577.639 694.835V694.835Z" fill="#CACACA"/>
<path d="M854.583 546.108H754.222C752.285 546.106 750.428 545.336 749.058 543.967C747.688 542.598 746.918 540.741 746.916 538.805V445.58C746.918 443.644 747.688 441.788 749.058 440.419C750.428 439.049 752.285 438.279 754.222 438.277H854.583C856.52 438.279 858.377 439.049 859.747 440.419C861.117 441.788 861.887 443.644 861.89 445.58V538.805C861.887 540.741 861.117 542.598 859.747 543.967C858.377 545.336 856.52 546.106 854.583 546.108V546.108Z" fill="#E6E6E6"/>
<path d="M833.46 541.182H759.151C757.214 541.18 755.357 540.41 753.987 539.041C752.618 537.672 751.847 535.815 751.845 533.879V450.51C751.847 448.574 752.618 446.718 753.987 445.349C755.357 443.979 757.214 443.209 759.151 443.207H849.655C851.592 443.209 853.449 443.979 854.819 445.349C856.189 446.718 856.959 448.574 856.961 450.51V517.692C856.954 523.92 854.476 529.89 850.07 534.294C845.664 538.698 839.691 541.175 833.46 541.182Z" fill="white"/>
<path d="M793.968 471.024C793.969 473.147 793.339 475.223 792.16 476.989C790.98 478.755 789.303 480.131 787.341 480.944C785.378 481.757 783.219 481.97 781.135 481.556C779.052 481.143 777.138 480.121 775.635 478.62C774.133 477.119 773.11 475.206 772.695 473.124C772.28 471.041 772.492 468.883 773.304 466.921C774.117 464.959 775.493 463.282 777.259 462.102C779.025 460.922 781.101 460.292 783.225 460.292C784.636 460.29 786.034 460.566 787.337 461.105C788.641 461.643 789.826 462.434 790.824 463.43C791.822 464.427 792.613 465.611 793.153 466.914C793.692 468.217 793.969 469.614 793.968 471.024V471.024Z" fill="#FFB5A9"/>
<path d="M801.345 490.391H775.249C773.746 490.391 772.527 491.609 772.527 493.111V494.411C772.527 495.914 773.746 497.132 775.249 497.132H801.345C802.848 497.132 804.066 495.914 804.066 494.411V493.111C804.066 491.609 802.848 490.391 801.345 490.391Z" fill="#3F3D56"/>
<path d="M833.468 503.873H775.338C773.835 503.873 772.616 505.091 772.616 506.593V507.894C772.616 509.396 773.835 510.614 775.338 510.614H833.468C834.972 510.614 836.19 509.396 836.19 507.894V506.593C836.19 505.091 834.972 503.873 833.468 503.873Z" fill="#3F3D56"/>
<path d="M833.468 517.355H775.338C773.835 517.355 772.616 518.573 772.616 520.076V521.376C772.616 522.879 773.835 524.097 775.338 524.097H833.468C834.972 524.097 836.19 522.879 836.19 521.376V520.076C836.19 518.573 834.972 517.355 833.468 517.355Z" fill="#3F3D56"/>
<path d="M783.465 472.58C785.54 472.58 787.223 470.898 787.223 468.824C787.223 466.749 785.54 465.067 783.465 465.067C781.389 465.067 779.707 466.749 779.707 468.824C779.707 470.898 781.389 472.58 783.465 472.58Z" fill="white"/>
<path d="M787.494 473.922H779.44C778.942 473.922 778.465 474.12 778.112 474.473C777.76 474.825 777.562 475.302 777.561 475.8C777.676 477.409 777.927 479.005 778.313 480.571C779.928 481.403 781.728 481.811 783.544 481.757C785.36 481.704 787.133 481.19 788.696 480.265C789.041 478.797 789.267 477.304 789.373 475.8C789.372 475.302 789.174 474.825 788.822 474.473C788.469 474.12 787.992 473.922 787.494 473.922V473.922Z" fill="white"/>
<path d="M844.854 461.35C843.45 461.35 842.078 460.934 840.911 460.155C839.744 459.375 838.834 458.267 838.297 456.971C837.76 455.675 837.62 454.249 837.893 452.873C838.167 451.497 838.843 450.233 839.836 449.241C840.828 448.249 842.093 447.574 843.469 447.3C844.846 447.026 846.273 447.167 847.569 447.704C848.866 448.24 849.974 449.15 850.754 450.316C851.534 451.483 851.95 452.854 851.95 454.257C851.95 456.138 851.202 457.942 849.872 459.272C848.541 460.603 846.736 461.35 844.854 461.35V461.35Z" fill="#E6E6E6"/>
<path d="M847.329 455.741L845.844 454.257L847.329 452.773C847.46 452.641 847.534 452.463 847.534 452.278C847.534 452.092 847.46 451.914 847.329 451.783C847.197 451.652 847.019 451.578 846.834 451.578C846.648 451.578 846.47 451.652 846.339 451.783L844.854 453.267L843.369 451.783C843.237 451.652 843.059 451.578 842.874 451.578C842.688 451.578 842.51 451.652 842.379 451.783C842.247 451.914 842.174 452.092 842.174 452.278C842.174 452.463 842.247 452.641 842.379 452.773L843.864 454.257L842.379 455.741C842.247 455.872 842.174 456.05 842.174 456.236C842.174 456.422 842.247 456.6 842.379 456.731C842.51 456.862 842.688 456.936 842.874 456.936C843.059 456.936 843.237 456.862 843.369 456.731L844.854 455.246L846.339 456.731C846.404 456.796 846.481 456.847 846.566 456.882C846.651 456.918 846.742 456.936 846.834 456.936C846.925 456.936 847.017 456.918 847.101 456.882C847.186 456.847 847.264 456.796 847.329 456.731C847.394 456.666 847.445 456.589 847.48 456.504C847.515 456.419 847.534 456.328 847.534 456.236C847.534 456.144 847.515 456.053 847.48 455.968C847.445 455.883 847.394 455.806 847.329 455.741V455.741Z" fill="white"/>
</g>
<defs>
<clipPath id="clip0_4_124">
<rect width="312" height="308" fill="white" transform="translate(577 387)"/>
</clipPath>
</defs>
</svg>
